<?xml version="1.0" encoding="UTF-8"?>
<svg version="1.1" xmlns="http://www.w3.org/2000/svg" width="500" height="500">
<path d="M0 0 C165 0 330 0 500 0 C500 165 500 330 500 500 C335 500 170 500 0 500 C0 335 0 170 0 0 Z " fill="#DAAC72" transform="translate(0,0)"/>
<path d="M0 0 C4.00813317 3.22449175 7.24687727 6.94450654 10.4375 10.9609375 C11.2625 11.9715625 12.0875 12.9821875 12.9375 14.0234375 C13.68 14.9825 13.68 14.9825 14.4375 15.9609375 C15.365625 14.6615625 15.365625 14.6615625 16.3125 13.3359375 C24.28741635 3.96927674 36.55529339 0.69220645 48.39697266 -0.28271484 C73.13507752 -1.63661695 95.03595288 3.19939704 114.125 19.58984375 C117.72514394 23.28120755 120.15902034 27.36428342 122.4375 31.9609375 C122.80488281 32.64542969 123.17226563 33.32992187 123.55078125 34.03515625 C126.55366103 40.55682907 125.54239215 48.96812748 125.4375 55.9609375 C126.24670898 55.64261963 126.24670898 55.64261963 127.07226562 55.31787109 C132.83089695 53.20480496 137.82783086 52.496236 143.9375 52.5859375 C145.12279297 52.56853516 145.12279297 52.56853516 146.33203125 52.55078125 C159.86328965 52.61721951 171.75462054 59.45922933 181.14306641 68.85522461 C191.22750663 79.72880966 195.09398722 92.74721059 194.87109375 107.296875 C194.51275306 113.73125622 191.96837379 118.60157549 188.4375 123.9609375 C189.2109375 124.10789063 189.984375 124.25484375 190.78125 124.40625 C203.32884558 127.10833123 210.63095355 133.68245288 217.625 144.2734375 C225.24115563 158.62318995 228.61740383 177.18993577 224.52734375 193.12109375 C221.27526403 202.73093703 216.04432838 210.38251671 209.4375 217.9609375 C209.76363281 218.52039063 210.08976562 219.07984375 210.42578125 219.65625 C218.1852525 233.89339194 219.21262767 248.64298467 214.83203125 264.0390625 C212.33669866 271.72446325 207.1629164 278.67435877 200.3125 283.03515625 C196.82425703 284.75747622 193.1776388 285.91776953 189.4375 286.9609375 C189.75976562 287.67894531 190.08203125 288.39695312 190.4140625 289.13671875 C192.97744601 296.21048317 191.94079436 303.72498802 188.890625 310.48046875 C183.66301327 319.40394576 175.29902723 327.58518199 165.125 330.3359375 C161.4375 330.9609375 161.4375 330.9609375 157.4375 330.9609375 C157.41562622 330.13239258 157.41562622 330.13239258 157.39331055 329.28710938 C156.96909198 314.81271186 155.97835738 301.19786346 151.25 287.3984375 C147.79095585 276.56546202 148.29381003 266.71207156 153.1484375 256.44921875 C153.57382812 255.62808594 153.99921875 254.80695313 154.4375 253.9609375 C155.01371094 252.80658203 155.01371094 252.80658203 155.6015625 251.62890625 C155.87742187 251.07847656 156.15328125 250.52804687 156.4375 249.9609375 C155.86902344 249.620625 155.30054688 249.2803125 154.71484375 248.9296875 C143.99229802 242.19900771 138.41180145 234.29426654 134.89331055 222.0703125 C134.04833373 218.15997524 134.16858159 214.19720024 134.125 210.2109375 C134.09599609 209.34210938 134.06699219 208.47328125 134.03710938 207.578125 C133.97564865 201.28076458 135.23759112 197.38879082 138.4375 191.9609375 C137.56351562 192.3940625 137.56351562 192.3940625 136.671875 192.8359375 C129.72441626 195.98195655 123.99718752 196.56841239 116.4375 195.9609375 C114.9834375 195.85458984 114.9834375 195.85458984 113.5 195.74609375 C101.34933468 194.30804958 90.1031162 188.57816728 82.4375 178.9609375 C80.4375 175.9609375 80.4375 175.9609375 79.4375 173.9609375 C78.32375 175.5078125 78.32375 175.5078125 77.1875 177.0859375 C69.22836776 186.29685815 57.5987999 188.35639677 46.0625 189.2109375 C34.28943654 189.63140405 23.23756081 187.56463108 14.14453125 179.703125 C12.11531947 177.63212167 10.64427834 175.60076513 9.4375 172.9609375 C9.1075 172.3009375 8.7775 171.6409375 8.4375 170.9609375 C7.97601563 171.67378906 7.51453125 172.38664063 7.0390625 173.12109375 C-0.6864203 184.46503391 -9.62494736 190.22195373 -22.88671875 193.54296875 C-36.74888908 195.70830047 -49.12997589 193.38901293 -61.5625 186.9609375 C-61.129375 188.15976562 -61.129375 188.15976562 -60.6875 189.3828125 C-55.94368119 203.41660982 -56.62855984 215.26100218 -62.8828125 228.82421875 C-67.72379091 237.54062524 -73.95399901 243.19238637 -83.5625 245.9609375 C-84.5525 245.9609375 -85.5425 245.9609375 -86.5625 245.9609375 C-86.129375 246.58355469 -85.69625 247.20617187 -85.25 247.84765625 C-79.11729444 258.02624395 -78.71406145 269.48434134 -80.96679688 281.03369141 C-83.21013815 289.58136221 -88.09380929 296.83667157 -94.5390625 302.78515625 C-96.5625 303.9609375 -96.5625 303.9609375 -98.39453125 303.59765625 C-99.04808594 303.28441406 -99.70164063 302.97117187 -100.375 302.6484375 C-108.63905868 299.49306964 -119.1379137 299.53030265 -127.3828125 302.859375 C-138.02077787 308.23555105 -147.6023334 315.25954071 -151.5625 326.9609375 C-152.42022023 330.94075935 -153.05101946 334.92293323 -153.5625 338.9609375 C-165.21182975 339.8904053 -174.67554708 336.98590411 -183.7578125 329.54296875 C-184.35335937 329.02089844 -184.94890625 328.49882812 -185.5625 327.9609375 C-186.17867187 327.44917969 -186.79484375 326.93742187 -187.4296875 326.41015625 C-193.29682565 321.13476808 -197.17376592 313.7581007 -198.5625 305.9609375 C-198.65599326 303.6291057 -198.69244428 301.29463759 -198.6875 298.9609375 C-198.69007813 297.7440625 -198.69265625 296.5271875 -198.6953125 295.2734375 C-198.58866155 292.61343739 -198.35557874 290.47864779 -197.5625 287.9609375 C-198.17996094 288.01894531 -198.79742187 288.07695312 -199.43359375 288.13671875 C-206.37521455 288.5065159 -211.08494162 287.32062682 -216.5625 282.9609375 C-221.85858944 277.64428073 -224.68353995 272.15879984 -226.5625 264.9609375 C-227.0575 263.4759375 -227.0575 263.4759375 -227.5625 261.9609375 C-228.3463592 251.24391178 -227.68612823 243.04949802 -220.9375 234.3984375 C-220.15375 233.5940625 -219.37 232.7896875 -218.5625 231.9609375 C-217.9025 231.9609375 -217.2425 231.9609375 -216.5625 231.9609375 C-216.5625 231.3009375 -216.5625 230.6409375 -216.5625 229.9609375 C-217.5525 229.7753125 -218.5425 229.5896875 -219.5625 229.3984375 C-225.45818506 227.66792265 -229.80000188 223.72081827 -233.07421875 218.59375 C-234.37288453 216.09001598 -235.49152396 213.56941324 -236.5625 210.9609375 C-236.8821875 210.28675781 -237.201875 209.61257812 -237.53125 208.91796875 C-241.26632968 199.97798638 -240.99940565 188.00493688 -237.875 178.8984375 C-233.37296733 168.51395796 -226.59202785 159.55881351 -216.5625 153.9609375 C-215.5725 153.9609375 -214.5825 153.9609375 -213.5625 153.9609375 C-214.19478516 153.07341797 -214.19478516 153.07341797 -214.83984375 152.16796875 C-215.66162109 150.98267578 -215.66162109 150.98267578 -216.5 149.7734375 C-217.04527344 148.99613281 -217.59054688 148.21882812 -218.15234375 147.41796875 C-222.2512716 140.27606952 -221.87175212 128.82021933 -220.09814453 120.8828125 C-217.40163541 111.87820027 -212.61160009 104.11405585 -206.5625 96.9609375 C-205.94632813 96.22101563 -205.33015625 95.48109375 -204.6953125 94.71875 C-198.81180157 88.24932927 -191.39858623 83.0968554 -182.45703125 82.59375 C-178.81376828 82.52892781 -175.19677509 82.69283524 -171.5625 82.9609375 C-171.59730469 81.91035156 -171.63210937 80.85976562 -171.66796875 79.77734375 C-172.04742315 63.94597748 -167.37226615 53.21695664 -157.13671875 41.0859375 C-151.5806658 35.27290602 -145.54785504 30.90734654 -138.5625 26.9609375 C-137.87414062 26.56132813 -137.18578125 26.16171875 -136.4765625 25.75 C-125.3934485 19.7334524 -111.93869495 17.69892889 -99.6484375 20.86328125 C-96.57484641 21.80410815 -93.56303916 22.81004577 -90.5625 23.9609375 C-90.44777344 23.22359375 -90.33304688 22.48625 -90.21484375 21.7265625 C-87.9217759 12.00505329 -78.8841182 4.46712811 -70.89453125 -0.796875 C-48.84345304 -13.46113059 -21.38263228 -14.57328212 0 0 Z " fill="#010000" transform="translate(257.5625,28.0390625)"/>
<path d="M0 0 C78.54 0 157.08 0 238 0 C238 0.33 238 0.66 238 1 C237.43007324 1.02392822 236.86014648 1.04785645 236.27294922 1.07250977 C211.00453316 2.28969262 186.67707224 8.22003506 163 17 C161.96359375 17.37253906 160.9271875 17.74507812 159.859375 18.12890625 C137.5393598 26.76994071 116.49883574 39.89393909 98 55 C97.45311523 55.4439209 96.90623047 55.8878418 96.34277344 56.34521484 C82.68154193 67.51435426 69.61229462 79.86245088 59 94 C58.50935059 94.65194336 58.01870117 95.30388672 57.51318359 95.97558594 C39.93125471 119.46390282 26.15700227 145.03683031 17 173 C16.62746094 174.08539063 16.25492188 175.17078125 15.87109375 176.2890625 C10.16596055 194.32175802 6.88444574 214.3781398 6.796875 233.2890625 C6.79117493 234.26878021 6.78547485 235.24849792 6.77960205 236.25790405 C6.7701908 238.33045386 6.76363356 240.40301837 6.75976562 242.47558594 C6.75017878 245.56734374 6.71916811 248.65840117 6.6875 251.75 C6.61994064 264.61224819 7.57542401 276.99761906 9.62768555 289.69526672 C9.98420776 291.90224151 10.31795585 294.11145562 10.64477539 296.32299805 C13.30383869 313.72592737 20.01688653 330.90693648 27 347 C27.2774707 347.64388672 27.55494141 348.28777344 27.84082031 348.95117188 C35.1914852 365.8244732 44.58328493 381.56830736 56 396 C56.84664813 397.12021132 57.6902793 398.24270773 58.53125 399.3671875 C62.52774138 404.69132941 66.52692167 409.8201932 71.375 414.41015625 C73.10582792 416.10353838 74.63360578 417.89354465 76.1875 419.75 C108.39507758 456.79226913 156.24668068 476.95799982 202.3125 490.0625 C202.97975098 490.25424805 203.64700195 490.44599609 204.33447266 490.64355469 C213.12085542 493.02775396 221.93917801 493.15857497 230.98828125 493.16796875 C232.12669968 493.17129715 233.2651181 493.17462555 234.43803406 493.17805481 C236.84255574 493.18309854 239.24708436 493.18546393 241.65161133 493.18530273 C245.26330692 493.18747047 248.8746872 493.20560204 252.48632812 493.22460938 C270.72702318 493.27098123 288.47627641 492.59195965 306.25 488.1875 C307.91071533 487.7867627 307.91071533 487.7867627 309.60498047 487.37792969 C312.74307599 486.60819949 315.87294058 485.81328977 319 485 C320.15193848 484.70053467 320.15193848 484.70053467 321.32714844 484.39501953 C346.03368447 477.766004 371.32474647 466.07398962 392 451 C392.60086426 450.56606934 393.20172852 450.13213867 393.82080078 449.68505859 C412.81951644 435.91889997 430.65102938 420.68073533 445 402 C445.72445313 401.06929688 446.44890625 400.13859375 447.1953125 399.1796875 C463.5401052 377.82325105 475.76909611 355.27782233 485 330 C485.30276855 329.17177734 485.60553711 328.34355469 485.91748047 327.49023438 C493.55955241 306.10864476 497.66120456 283.62102643 499 261 C499.33 261 499.66 261 500 261 C500 339.87 500 418.74 500 500 C335 500 170 500 0 500 C0 335 0 170 0 0 Z " fill="#000000" transform="translate(0,0)"/>
<path d="M0 0 C2.58478796 0.00056582 5.16957624 0.00024423 7.75436401 -0.00088501 C13.26408364 -0.00192169 18.77375503 0.00422533 24.28346252 0.01559067 C32.24906269 0.03201107 40.2146401 0.03707035 48.18025535 0.03956665 C61.11139431 0.04391818 74.0425077 0.05715737 86.97363281 0.07617188 C99.51725135 0.09459712 112.06086284 0.10869788 124.60449219 0.1171875 C125.38864604 0.11772349 126.1727999 0.11825949 126.98071599 0.11881173 C133.11548348 0.12297182 139.25025112 0.12688523 145.38501883 0.13072085 C175.3315725 0.14950709 205.27806197 0.18976261 235.22460938 0.22705078 C235.22460938 77.11705078 235.22460938 154.00705078 235.22460938 233.22705078 C234.89460938 233.22705078 234.56460937 233.22705078 234.22460938 233.22705078 C234.18086182 232.40188965 234.18086182 232.40188965 234.13623047 231.56005859 C232.30167456 199.96420873 224.66663623 168.49169476 210.22460938 140.22705078 C209.61292526 138.94360939 209.00498394 137.6583789 208.40039062 136.37158203 C199.43604638 117.5052199 186.4234008 94.81313391 170.22460938 81.22705078 C168.90460938 81.22705078 167.58460938 81.22705078 166.22460938 81.22705078 C167.54460937 81.88705078 168.86460937 82.54705078 170.22460938 83.22705078 C170.22460938 85.22705078 170.22460938 85.22705078 168.72460938 86.85205078 C167.98210937 87.53267578 167.98210937 87.53267578 167.22460938 88.22705078 C167.82273437 88.47455078 168.42085938 88.72205078 169.03710938 88.97705078 C171.53328625 90.40343757 172.5625617 91.91463662 174.22460938 94.22705078 C175.21460938 94.88705078 176.20460938 95.54705078 177.22460938 96.22705078 C176.56460937 96.22705078 175.90460938 96.22705078 175.22460938 96.22705078 C174.89460938 97.21705078 174.56460937 98.20705078 174.22460938 99.22705078 C173.82113281 98.74236328 173.41765625 98.25767578 173.00195312 97.75830078 C168.6812603 92.98810913 164.17368956 89.77778284 158.53710938 86.78955078 C157.89572021 86.44794922 157.25433105 86.10634766 156.59350586 85.75439453 C149.92855531 82.3488064 144.29974142 82.0452825 136.97460938 82.03955078 C136.16636719 82.02730469 135.358125 82.01505859 134.52539062 82.00244141 C128.84919205 81.98881853 123.70801092 82.77386704 118.22460938 84.22705078 C118.11246094 82.25285156 118.11246094 82.25285156 117.99804688 80.23876953 C117.28867882 70.08050303 116.49758408 61.64604315 110.22460938 53.22705078 C109.59941406 52.38787109 108.97421875 51.54869141 108.33007812 50.68408203 C98.09628913 38.7414971 79.64244473 31.06848277 64.22460938 29.22705078 C46.58073336 27.90844876 26.77673809 27.60813001 12.22460938 39.22705078 C10.3096221 41.14640022 8.80716453 43.01147356 7.22460938 45.22705078 C4.50754816 42.62173018 2.26925846 39.9836775 0.09960938 36.91455078 C-7.22871189 27.47914349 -16.69134912 23.71513667 -27.77539062 20.22705078 C-28.76539063 19.89705078 -29.75539062 19.56705078 -30.77539062 19.22705078 C-51.63706775 17.67774203 -70.59862273 21.20372036 -86.90039062 34.97705078 C-92.07629815 39.98901554 -95.07706564 45.60078437 -97.77539062 52.22705078 C-101.01954833 51.75229599 -104.0430864 51.14579147 -107.18554688 50.19189453 C-120.38463281 46.64437089 -133.94143189 49.73766192 -145.87304688 55.80126953 C-159.86159399 64.24161653 -172.59529474 77.12350451 -177.34204102 93.13891602 C-177.78451074 95.2709969 -177.8895221 97.16169618 -177.87304688 99.33642578 C-177.86982422 100.09052734 -177.86660156 100.84462891 -177.86328125 101.62158203 C-177.85490234 102.39888672 -177.84652344 103.17619141 -177.83789062 103.97705078 C-177.83337891 104.76982422 -177.82886719 105.56259766 -177.82421875 106.37939453 C-177.81247627 108.32864586 -177.79454208 110.27785816 -177.77539062 112.22705078 C-178.79117188 112.15744141 -179.80695313 112.08783203 -180.85351562 112.01611328 C-191.8079248 111.49103915 -199.39757757 113.1775263 -208.23242188 120.17236328 C-217.79919264 129.00573595 -226.367095 142.17606532 -227.08007812 155.44580078 C-227.31530724 164.85090956 -227.20357306 172.7275046 -220.77539062 180.22705078 C-220.77539062 180.88705078 -220.77539062 181.54705078 -220.77539062 182.22705078 C-221.59330078 182.61183594 -221.59330078 182.61183594 -222.42773438 183.00439453 C-234.63395327 189.20139797 -241.13783613 198.22401326 -245.40429688 211.12939453 C-247.78406079 224.58132316 -245.33790152 237.28730113 -238.13476562 248.86376953 C-234.23306246 253.79559526 -229.65996983 256.19880579 -223.77539062 258.22705078 C-223.77539062 260.22705078 -223.77539062 260.22705078 -226.08789062 262.60205078 C-226.97476563 263.46830078 -227.86164063 264.33455078 -228.77539062 265.22705078 C-234.99101341 272.36350657 -234.38954725 281.27926112 -233.77539062 290.22705078 C-233.14290221 293.4541267 -232.18547466 296.26225871 -230.77539062 299.22705078 C-230.32292969 300.17837891 -230.32292969 300.17837891 -229.86132812 301.14892578 C-226.51139696 307.52196555 -221.57860971 312.63040228 -214.77539062 315.22705078 C-211.44552737 315.81123732 -208.15143976 316.09119367 -204.77539062 316.22705078 C-204.82179687 317.39880859 -204.86820313 318.57056641 -204.91601562 319.77783203 C-205.24429699 331.63131464 -204.46389452 341.56150302 -196.77539062 351.22705078 C-196.34097656 351.77748047 -195.9065625 352.32791016 -195.45898438 352.89501953 C-186.51993308 363.04386724 -173.60792373 366.33991356 -160.77539062 368.22705078 C-160.50984375 369.07009766 -160.24429688 369.91314453 -159.97070312 370.78173828 C-159.6175 371.87744141 -159.26429688 372.97314453 -158.90039062 374.10205078 C-158.55234375 375.19259766 -158.20429688 376.28314453 -157.84570312 377.40673828 C-156.96363831 380.31227801 -156.96363831 380.31227801 -154.77539062 382.22705078 C-154.77539062 383.54705078 -154.77539062 384.86705078 -154.77539062 386.22705078 C-154.11539063 386.22705078 -153.45539063 386.22705078 -152.77539062 386.22705078 C-151.37304687 387.87158203 -151.37304687 387.87158203 -149.83789062 390.03955078 C-145.64984249 395.91995596 -141.83117578 399.22099422 -134.77539062 401.22705078 C-126.59079158 402.01880104 -118.71934103 401.2771025 -110.77539062 399.22705078 C-110.77539062 398.56705078 -110.77539062 397.90705078 -110.77539062 397.22705078 C-110.18371094 396.97310547 -109.59203125 396.71916016 -108.98242188 396.45751953 C-105.49608418 394.9390005 -102.15356709 393.45724515 -98.90039062 391.47705078 C-96.77539063 390.22705078 -96.77539063 390.22705078 -93.77539062 390.22705078 C-90.03664765 398.5910428 -87.14516166 406.8761206 -85.02539062 415.78955078 C-84.72822144 417.02644653 -84.72822144 417.02644653 -84.42504883 418.28833008 C-81.68231617 430.31019245 -80.4576601 442.15094962 -80.56958008 454.46069336 C-80.58803076 456.55546114 -80.59008736 458.64978754 -80.58984375 460.74462891 C-80.60845538 467.6391687 -80.8272238 474.39266432 -81.77539062 481.22705078 C-81.11539063 481.22705078 -80.45539063 481.22705078 -79.77539062 481.22705078 C-79.11539063 482.54705078 -78.45539063 483.86705078 -77.77539062 485.22705078 C-84.66856806 484.69680636 -90.52902744 482.75962963 -96.96289062 480.28955078 C-98.01299316 479.88913574 -99.0630957 479.4887207 -100.14501953 479.07617188 C-127.99063856 468.26571704 -154.50873787 453.31573713 -176.25585938 432.60595703 C-178.33260374 430.64512398 -180.44535449 428.78164112 -182.61132812 426.92236328 C-186.7210421 423.3413226 -190.49828486 419.52548087 -194.21289062 415.53955078 C-194.86612305 414.83894531 -195.51935547 414.13833984 -196.19238281 413.41650391 C-201.51593616 407.63634435 -206.27319887 401.67613626 -210.77539062 395.22705078 C-211.65419537 393.99390552 -212.53310752 392.7608368 -213.41210938 391.52783203 C-228.59617183 370.03174361 -239.72320393 347.66883269 -247.95898438 322.67626953 C-248.6301436 320.66279184 -249.33836558 318.66170578 -250.05664062 316.66455078 C-252.91826904 308.68667763 -254.41853304 300.57449747 -255.77539062 292.22705078 C-255.90403503 291.44018387 -256.03267944 290.65331696 -256.16522217 289.84260559 C-258.45331648 275.50348281 -259.30243563 261.48719627 -259.21289062 246.97705078 C-259.21051392 245.95544861 -259.20813721 244.93384644 -259.20568848 243.88128662 C-259.14799399 227.98769691 -258.19790217 212.79356698 -254.77539062 197.22705078 C-254.47059874 195.69738244 -254.16713689 194.16744826 -253.86523438 192.63720703 C-247.41507185 161.50446977 -233.1971776 131.04015597 -214.77539062 105.22705078 C-214.04707031 104.20353516 -213.31875 103.18001953 -212.56835938 102.12548828 C-199.25678507 83.9449958 -183.67498709 66.9633337 -165.77539062 53.22705078 C-164.83308594 52.45619141 -163.89078125 51.68533203 -162.91992188 50.89111328 C-153.48693388 43.31124713 -143.28275662 37.19938374 -132.77539062 31.22705078 C-131.9885791 30.77797363 -131.20176758 30.32889648 -130.39111328 29.86621094 C-112.62453845 19.83433563 -93.56862474 12.20395001 -73.77539062 7.22705078 C-72.9257373 7.01064941 -72.07608398 6.79424805 -71.20068359 6.57128906 C-68.37724796 5.86681296 -65.54741469 5.19791057 -62.71289062 4.53955078 C-61.88273438 4.3368457 -61.05257812 4.13414063 -60.19726562 3.92529297 C-40.57584686 -0.4148953 -19.98038309 -0.06232131 0 0 Z " fill="#D7D7D6" transform="translate(264.775390625,-0.22705078125)"/>
<path d="M0 0 C2.19140625 -0.30078125 2.19140625 -0.30078125 5 0 C20.4316294 12.57113224 31.71586 32.72612517 41 50 C41.36818848 50.68126953 41.73637695 51.36253906 42.11572266 52.06445312 C72.64474773 109.15696431 78.22199745 176.8605984 59.890625 238.74511719 C57.5044235 246.25715736 54.8246757 253.64312315 52 261 C51.74428223 261.69109863 51.48856445 262.38219727 51.22509766 263.09423828 C42.14665468 287.54226829 26.30698349 310.64595395 9 330 C8.25363281 330.8559375 7.50726563 331.711875 6.73828125 332.59375 C-2.38976536 342.95088727 -12.03808497 352.58501594 -23 361 C-23.65822754 361.51288574 -24.31645508 362.02577148 -24.99462891 362.55419922 C-42.64494241 376.24534233 -61.58928285 386.97968989 -82 396 C-82.64066406 396.28568848 -83.28132813 396.57137695 -83.94140625 396.86572266 C-118.73641363 412.18549899 -154.60357213 414.40991025 -192 414 C-191.67 413.34 -191.34 412.68 -191 412 C-188.62890625 411.5078125 -188.62890625 411.5078125 -185.5625 411.125 C-176.23645205 409.69022339 -168.94200506 406.22875007 -161.03125 401.171875 C-159 400 -159 400 -157 400 C-157 388.45 -157 376.9 -157 365 C-154.41671875 364.95101563 -151.8334375 364.90203125 -149.171875 364.8515625 C-108.46963881 365.5188978 -108.46963881 365.5188978 -69.9140625 354.91015625 C-68 354 -68 354 -64 354 C-64 353.34 -64 352.68 -64 352 C-63.0821875 351.56429688 -62.164375 351.12859375 -61.21875 350.6796875 C-40.65624076 340.76416921 -28.12835222 326.06139466 -20.1015625 304.5703125 C-18.12597236 298.16715866 -17.04363133 291.60966507 -16 285 C-15.67 285 -15.34 285 -15 285 C-14.67 283.35 -14.34 281.7 -14 280 C-13.46632813 279.85304688 -12.93265625 279.70609375 -12.3828125 279.5546875 C-0.85472906 276.0842956 8.80194769 269.86680743 14.875 259.3125 C17.37227662 254.65698101 18.15089119 250.84149109 18.1875 245.5625 C18.20167969 244.63566406 18.21585938 243.70882812 18.23046875 242.75390625 C17.98507562 239.82166627 17.22201577 237.66138611 16 235 C16.79664063 234.69707031 17.59328125 234.39414062 18.4140625 234.08203125 C28.39050393 230.13757448 35.16591626 225.91258744 40 216 C45.54901338 199.38721304 44.87573378 184.60924815 37.75 168.5 C37.1725 167.345 36.595 166.19 36 165 C36.63615234 164.48566406 36.63615234 164.48566406 37.28515625 163.9609375 C45.20547687 156.89357448 51.20583023 145.33297592 52.21704102 134.72265625 C53.11994672 115.94518411 50.15454895 98.27235977 37.625 83.5 C30.93037134 76.5259628 24.40231396 74.4642948 15 73 C15.433125 72.27039063 15.86625 71.54078125 16.3125 70.7890625 C21.95565699 60.20814314 22.9718441 49.92897649 20.07421875 38.27734375 C17.92309066 32.28641699 15.07669852 27.07028258 11.234375 22 C9.79953655 19.67519846 9.48655634 17.66960116 9 15 C6.55723957 11.2595134 6.55723957 11.2595134 2.75 9.1875 C2.1725 9.125625 1.595 9.06375 1 9 C1.66 7.68 2.32 6.36 3 5 C3.66 5 4.32 5 5 5 C4.67 4.34 4.34 3.68 4 3 C3.01 3 2.02 3 1 3 C0.67 2.01 0.34 1.02 0 0 Z " fill="#D8D7D7" transform="translate(430,80)"/>
<path d="M0 0 C75.9 0 151.8 0 230 0 C230 76.89 230 153.78 230 233 C229.67 233 229.34 233 229 233 C228.97083496 232.44989258 228.94166992 231.89978516 228.91162109 231.33300781 C227.07706518 199.73715795 219.44202685 168.26464398 205 140 C204.38831588 138.71655861 203.78037457 137.43132812 203.17578125 136.14453125 C193.48708561 115.75369892 180.16621847 97.09588464 164.6171875 80.76953125 C162.57165145 78.60492668 160.63690377 76.4249827 158.75 74.125 C156.16938352 71.06566047 153.28685325 68.51167098 150.234375 65.9296875 C148.66890999 64.57769499 147.14001599 63.18273043 145.640625 61.7578125 C121.70313429 39.05346525 90.91591175 23.64224122 60 13 C58.61584996 12.50400518 57.23173137 12.00792258 55.84765625 11.51171875 C37.93334119 5.4400254 18.7966532 2.62710047 0 1 C0 0.67 0 0.34 0 0 Z " fill="#000000" transform="translate(270,0)"/>
<path d="M0 0 C12.74690743 -0.33061143 22.83965898 -0.39060949 33 8 C36.73048199 11.92682315 40 16.44510949 40 22 C40.92619141 21.94779297 40.92619141 21.94779297 41.87109375 21.89453125 C52.22190309 21.56368346 59.92893583 24.50970923 68 31 C73.2473768 35.97300416 77.024683 41.66170321 77.36328125 49.04296875 C77.36197414 50.42458224 77.34492332 51.80626639 77.3125 53.1875 C77.31572266 53.88552734 77.31894531 54.58355469 77.32226562 55.30273438 C77.28339261 59.0168738 77.04507729 61.84683302 75 65 C73.02 64.505 73.02 64.505 71 64 C71.03480469 63.02160156 71.06960938 62.04320312 71.10546875 61.03515625 C71.44304438 48.22035977 71.44304438 48.22035977 65.625 37.1875 C64.75875 36.465625 63.8925 35.74375 63 35 C61.88625 33.948125 61.88625 33.948125 60.75 32.875 C53.23119863 27.74854452 44.87807119 27.39793518 36 27 C35.76925781 26.26394531 35.53851563 25.52789062 35.30078125 24.76953125 C33.38658367 19.0420705 31.88421603 14.83759831 27 11 C26.19046875 10.32324219 25.3809375 9.64648438 24.546875 8.94921875 C20.04564731 5.97260044 14.86740433 6.07469085 9.625 5.75 C8.60277344 5.67265625 7.58054687 5.5953125 6.52734375 5.515625 C4.01892713 5.32807983 1.51050007 5.15670719 -1 5 C-0.67 3.35 -0.34 1.7 0 0 Z " fill="#4B4B4B" transform="translate(348,115)"/>
<path d="M0 0 C7.18336292 3.71353172 12.79897681 10.03582527 16.41796875 17.25 C16.10546875 19.5546875 16.10546875 19.5546875 15.41796875 21.25 C14.09796875 21.25 12.77796875 21.25 11.41796875 21.25 C9.93359375 19.5 9.93359375 19.5 8.66796875 17.25 C8.24 16.5075 7.81203125 15.765 7.37109375 15 C7.0565625 14.4225 6.74203125 13.845 6.41796875 13.25 C3.72741595 14.47007944 3.72741595 14.47007944 1.41796875 16.25 C1.19272367 21.65588195 1.7373951 26.89048249 2.41796875 32.25 C1.09796875 32.25 -0.22203125 32.25 -1.58203125 32.25 C-4.0250148 26.54970506 -5.18267952 22.45669882 -4.58203125 16.25 C-3.20703125 13 -3.20703125 13 -1.58203125 10.25 C-1.19015625 9.46625 -0.79828125 8.6825 -0.39453125 7.875 C-0.12640625 7.33875 0.14171875 6.8025 0.41796875 6.25 C-4.84922177 4.03223557 -9.94352697 3.46024207 -15.58203125 4.25 C-18.91011364 6.13413915 -18.91011364 6.13413915 -21.58203125 8.25 C-22.90203125 8.25 -24.22203125 8.25 -25.58203125 8.25 C-25.51953125 6.0625 -25.51953125 6.0625 -24.58203125 3.25 C-16.99046495 -3.79512965 -9.29288743 -4.04894339 0 0 Z " fill="#3A2714" transform="translate(145.58203125,354.75)"/>
<path d="M0 0 C0 0.99 0 1.98 0 3 C-0.83144531 3.39832031 -1.66289063 3.79664063 -2.51953125 4.20703125 C-3.60621094 4.73683594 -4.69289063 5.26664063 -5.8125 5.8125 C-7.43091797 6.59560547 -7.43091797 6.59560547 -9.08203125 7.39453125 C-11.59719587 8.77837685 -13.06351789 9.96577747 -15 12 C-15.66 12 -16.32 12 -17 12 C-17.268125 12.680625 -17.53625 13.36125 -17.8125 14.0625 C-19 17 -19 17 -20.55859375 20.09375 C-22.45637039 24.52305728 -22.37082748 28.68369382 -22.25 33.4375 C-22.24484375 34.24509766 -22.2396875 35.05269531 -22.234375 35.88476562 C-22.16850777 40.99359304 -21.71996893 45.94279891 -21 51 C-22.875 51.625 -22.875 51.625 -25 52 C-29.06993994 47.93006006 -29.26349029 41.30125697 -29.37988281 35.7590332 C-29.37827148 35.05480225 -29.37666016 34.35057129 -29.375 33.625 C-29.37338867 32.88403076 -29.37177734 32.14306152 -29.37011719 31.37963867 C-29.23400901 25.27145083 -28.01660652 20.36285604 -25 15 C-24.4225 13.948125 -23.845 12.89625 -23.25 11.8125 C-17.76352604 4.95440755 -9.56195532 -3.28692214 0 0 Z " fill="#484848" transform="translate(127,157)"/>
<path d="M0 0 C3.00160098 1.49574729 5.64660184 3.13290139 8.3203125 5.15625 C7.9903125 6.47625 7.6603125 7.79625 7.3203125 9.15625 C3.61713539 8.36271205 0.64408714 6.85950528 -2.6796875 5.09375 C-9.00271176 2.12983238 -16.72114236 2.16377808 -23.40625 3.83984375 C-31.24895179 6.76568141 -37.82167125 11.27406032 -42.6796875 18.15625 C-43.9996875 17.82625 -45.3196875 17.49625 -46.6796875 17.15625 C-46.11301881 11.20622877 -42.64315333 8.95788186 -38.31640625 5.2421875 C-26.83306029 -3.84241508 -13.60262623 -5.68467962 0 0 Z " fill="#4B4B4B" transform="translate(268.6796875,94.84375)"/>
<path d="M0 0 C1.67542976 0.28604898 3.34385343 0.61781233 5 1 C4.67 2.19625 4.34 3.3925 4 4.625 C1.86925271 14.3986452 1.6408169 23.39282714 7 32 C7.33 32.99 7.66 33.98 8 35 C9.74867483 36.08431094 9.74867483 36.08431094 12 37 C14 38 16 39 18 40 C16.35 41.32 14.7 42.64 13 44 C5.52578521 41.08323325 0.83676684 35.4348753 -2.4375 28.25 C-5.68219697 19.13128264 -4.58284185 9.85500291 -1 1 C-0.67 0.67 -0.34 0.34 0 0 Z " fill="#484848" transform="translate(107,293)"/>
<path d="M0 0 C-0.33 0.66 -0.66 1.32 -1 2 C-4.14925865 2.90481283 -7.44282707 3.20332715 -10.6875 3.625 C-11.68668457 3.7576123 -12.68586914 3.89022461 -13.71533203 4.02685547 C-23.94969418 5.23630024 -34.12246103 5.22758212 -44.40893555 5.06494141 C-45.64297119 5.04608887 -46.87700684 5.02723633 -48.1484375 5.0078125 C-49.25364746 4.98348145 -50.35885742 4.95915039 -51.49755859 4.93408203 C-53.94060268 4.71118874 -53.94060268 4.71118874 -55 6 C-55.22976424 8.28839145 -55.39574322 10.58323836 -55.53515625 12.87890625 C-55.57813339 13.5655687 -55.62111053 14.25223114 -55.66539001 14.95970154 C-55.80211912 17.1603912 -55.93237573 19.36141087 -56.0625 21.5625 C-56.15387195 23.05145843 -56.24566333 24.54039118 -56.33789062 26.02929688 C-56.56346771 29.6859121 -56.78324029 33.34285032 -57 37 C-57.33 37 -57.66 37 -58 37 C-58 25.45 -58 13.9 -58 2 C-55.33550781 1.93941406 -52.67101562 1.87882812 -49.92578125 1.81640625 C-47.30100472 1.75432633 -44.67625922 1.69106016 -42.05151367 1.62768555 C-40.24880828 1.58478312 -38.44607379 1.54308406 -36.64331055 1.50268555 C-27.30990676 1.29274228 -18.01738857 1.05473821 -8.71557617 0.19897461 C-5.80158383 -0.01453827 -2.9207586 -0.03202527 0 0 Z " fill="#E1D3C0" transform="translate(331,443)"/>
<path d="M0 0 C0.66 0.99 1.32 1.98 2 3 C1.34 3 0.68 3 0 3 C-2.77789791 17.93120127 -0.14873811 27.44057227 7.92578125 39.93359375 C8.28027344 40.61550781 8.63476562 41.29742187 9 42 C8.67 42.66 8.34 43.32 8 44 C4 39.25 4 39.25 4 37 C3.34 37 2.68 37 2 37 C-3.1796875 24.25 -3.1796875 24.25 -4 19 C-5.98 19 -7.96 19 -10 19 C-10 18.67 -10 18.34 -10 18 C-8.02 18 -6.04 18 -4 18 C-4.12375 16.0509375 -4.12375 16.0509375 -4.25 14.0625 C-4.28410633 8.69075359 -2.47959766 4.6824545 0 0 Z " fill="#C5A782" transform="translate(108,349)"/>
<path d="M0 0 C0.33 0.99 0.66 1.98 1 3 C0.15695313 3.33773438 -0.68609375 3.67546875 -1.5546875 4.0234375 C-2.65039062 4.46945312 -3.74609375 4.91546875 -4.875 5.375 C-6.51082031 6.03628906 -6.51082031 6.03628906 -8.1796875 6.7109375 C-11.06329362 7.83051338 -11.06329362 7.83051338 -13 10 C-14.32 10 -15.64 10 -17 10 C-16.71624756 6.59497074 -16.23082747 5.23742254 -13.8125 2.75 C-9.36582233 -0.01682166 -5.13783202 -0.15111271 0 0 Z " fill="#332111" transform="translate(137,353)"/>
<path d="M0 0 C1.32 0 2.64 0 4 0 C6.29612756 11.52164009 6.29612756 11.52164009 6 17 C4.68 17 3.36 17 2 17 C-0.44149915 11.30316864 -1.43494682 7.19799214 -1 1 C-0.67 0.67 -0.34 0.34 0 0 Z " fill="#37210C" transform="translate(142,370)"/>
<path d="M0 0 C0.66 0 1.32 0 2 0 C2.14847696 4.911161 2.2572708 9.82101286 2.32958984 14.73388672 C2.35973821 16.40436561 2.40066552 18.0746865 2.45263672 19.74462891 C2.52554846 22.14785705 2.55947188 24.54899164 2.5859375 26.953125 C2.61690521 27.69806213 2.64787292 28.44299927 2.67977905 29.21051025 C2.68115234 31.33300781 2.68115234 31.33300781 2 35 C-1.03662109 37.50292969 -1.03662109 37.50292969 -4 39 C-4.66 38.67 -5.32 38.34 -6 38 C-4 35 -4 35 -1 34 C-0.67 22.78 -0.34 11.56 0 0 Z " fill="#D3B58D" transform="translate(271,445)"/>
<path d="M0 0 C-0.51046875 0.4021875 -1.0209375 0.804375 -1.546875 1.21875 C-3.24687185 2.89618584 -3.24687185 2.89618584 -2.890625 5.15625 C-2.67921875 5.9296875 -2.4678125 6.703125 -2.25 7.5 C-2.04890625 8.2734375 -1.8478125 9.046875 -1.640625 9.84375 C-1.12694788 11.57271201 -0.57036601 13.28890198 0 15 C0.38820841 18.01011404 0.55585999 21.03438941 0.75 24.0625 C0.81832031 24.89072266 0.88664063 25.71894531 0.95703125 26.57226562 C1.03244141 27.76045898 1.03244141 27.76045898 1.109375 28.97265625 C1.16061523 29.69718994 1.21185547 30.42172363 1.26464844 31.16821289 C1.17731445 31.77270264 1.08998047 32.37719238 1 33 C0.01 33.66 -0.98 34.32 -2 35 C-2.00410889 34.38592285 -2.00821777 33.7718457 -2.01245117 33.13916016 C-1.95790839 17.3022807 -1.95790839 17.3022807 -8 3 C-8 2.34 -8 1.68 -8 1 C-2.25 -1.125 -2.25 -1.125 0 0 Z " fill="#BB9A74" transform="translate(179,273)"/>
<path d="M0 0 C2.31966166 2.84685749 3.91581154 5.4763875 5 9 C4.67 9.99 4.34 10.98 4 12 C3.67 10.68 3.34 9.36 3 8 C2.34 8 1.68 8 1 8 C0.87625 8.639375 0.7525 9.27875 0.625 9.9375 C0.41875 10.618125 0.2125 11.29875 0 12 C-0.99 12.495 -0.99 12.495 -2 13 C-4.35981813 12.06421005 -6.69631264 11.06652192 -9 10 C-8.2575 9.278125 -7.515 8.55625 -6.75 7.8125 C-4.30709485 5.31407427 -2.1318953 2.76356798 0 0 Z " fill="#DAAC7A" transform="translate(337,201)"/>
<path d="M0 0 C1.02480469 0.42152344 2.04960937 0.84304687 3.10546875 1.27734375 C4.46605181 1.8309603 5.82673416 2.38433286 7.1875 2.9375 C8.19780273 3.35418945 8.19780273 3.35418945 9.22851562 3.77929688 C12.80221811 5.22621056 16.16443184 6.41163129 20 7 C18.3125 8.125 18.3125 8.125 16 9 C13.25 8.125 13.25 8.125 11 7 C11 7.99 11 8.98 11 10 C9.68 9.67 8.36 9.34 7 9 C6.34 10.65 5.68 12.3 5 14 C3.38274466 10.99049877 2.32417377 8.02896392 1.375 4.75 C0.98441406 3.41195312 0.98441406 3.41195312 0.5859375 2.046875 C0.39257812 1.37140625 0.19921875 0.6959375 0 0 Z " fill="#C8A477" transform="translate(195,214)"/>
<path d="M0 0 C0.33 0 0.66 0 1 0 C1.01458252 1.13542236 1.02916504 2.27084473 1.04418945 3.44067383 C1.10213676 7.65095609 1.17936941 11.8607015 1.26245117 16.07055664 C1.2957174 17.89305919 1.32374406 19.71566519 1.34643555 21.53833008 C1.37995081 24.1575125 1.43226352 26.77574548 1.48828125 29.39453125 C1.49467117 30.21025101 1.5010611 31.02597076 1.50764465 31.8664093 C1.49626439 36.06325582 1.49626439 36.06325582 3.33952332 39.67680359 C5.0764717 41.21655468 5.0764717 41.21655468 8 42 C8 42.66 8 43.32 8 44 C6.02 44 4.04 44 2 44 C1.67 42.35 1.34 40.7 1 39 C0.34 39 -0.32 39 -1 39 C-0.67 26.13 -0.34 13.26 0 0 Z " fill="#D1B389" transform="translate(184,442)"/>
<path d="M0 0 C0.33 0 0.66 0 1 0 C1.02494208 4.39249301 1.04297329 8.78494717 1.05493164 13.17749023 C1.05992328 14.66805745 1.06671894 16.15861986 1.07543945 17.64916992 C1.12015168 25.49484991 1.1148321 33.21373172 0 41 C0.66 41 1.32 41 2 41 C2.66 42.32 3.32 43.64 4 45 C2.125 44.75 2.125 44.75 0 44 C-1.86480217 41.07609415 -2.25066259 38.80874789 -2.1875 35.375 C-2.17783203 34.21097656 -2.17783203 34.21097656 -2.16796875 33.0234375 C-2 31 -2 31 -1 29 C-0.84530633 26.82325217 -0.74997894 24.6421652 -0.68359375 22.4609375 C-0.62075195 20.50800781 -0.62075195 20.50800781 -0.55664062 18.515625 C-0.51682701 17.13541955 -0.47711478 15.75521117 -0.4375 14.375 C-0.39430593 12.98696585 -0.35069135 11.59894472 -0.30664062 10.2109375 C-0.20028 6.80739744 -0.09825286 3.40378222 0 0 Z " fill="#DECEBA" transform="translate(183,440)"/>
<path d="M0 0 C0.99 0.33 1.98 0.66 3 1 C-1.83998044 5.98233281 -6.80495515 10.73039299 -13 14 C-13.66 14 -14.32 14 -15 14 C-14.67 11.36 -14.34 8.72 -14 6 C-13.01 5.67 -12.02 5.34 -11 5 C-11 5.66 -11 6.32 -11 7 C-8.02934491 6.65772428 -8.02934491 6.65772428 -5 6 C-4.67 5.34 -4.34 4.68 -4 4 C-3.01 3.67 -2.02 3.34 -1 3 C-0.67 2.01 -0.34 1.02 0 0 Z " fill="#D5B07C" transform="translate(391,413)"/>
<path d="M0 0 C1.5 1.37109375 1.5 1.37109375 3 3 C3 5.0625 3 5.0625 2 7 C-0.5625 8.25 -0.5625 8.25 -3 9 C-3 9.66 -3 10.32 -3 11 C-3.99 11.495 -3.99 11.495 -5 12 C-5.27585937 12.65484375 -5.55171875 13.3096875 -5.8359375 13.984375 C-7 16 -7 16 -9.1640625 16.828125 C-9.97617188 16.96734375 -10.78828125 17.1065625 -11.625 17.25 C-12.44226563 17.39953125 -13.25953125 17.5490625 -14.1015625 17.703125 C-15.04128906 17.85007813 -15.04128906 17.85007813 -16 18 C-11 14 -11 14 -8.5625 12.375 C-4.75824807 8.84910797 -2.50239742 4.50603522 0 0 Z " fill="#C19F76" transform="translate(265,198)"/>
<path d="M0 0 C0.33 0 0.66 0 1 0 C1 4.29 1 8.58 1 13 C4.3 12.34 7.6 11.68 11 11 C10.67 11.66 10.34 12.32 10 13 C7.35139573 13.59355614 4.70802678 13.74209269 2 14 C2.061875 15.258125 2.12375 16.51625 2.1875 17.8125 C2.32560581 20.62065146 2.35160213 21.59025178 0.48828125 23.76171875 C-0.00285156 24.17035156 -0.49398438 24.57898438 -1 25 C-1.12190678 16.60197746 -0.84327749 8.35748222 0 0 Z " fill="#C7B195" transform="translate(414,346)"/>
<path d="M0 0 C3 1 3 1 4.6875 4.0625 C5.120625 5.031875 5.55375 6.00125 6 7 C3.69 7.33 1.38 7.66 -1 8 C-1 7.34 -1 6.68 -1 6 C-1.33 6 -1.66 6 -2 6 C-2.33 7.65 -2.66 9.3 -3 11 C-3.33 11 -3.66 11 -4 11 C-4.49230769 4.6 -4.49230769 4.6 -2 1.5625 C-1.34 1.046875 -0.68 0.53125 0 0 Z " fill="#C19F71" transform="translate(150,367)"/>
<path d="M0 0 C0.66 0.33 1.32 0.66 2 1 C1.35546875 2.1240625 0.7109375 3.248125 0.046875 4.40625 C-2.30860541 9.11721082 -2.65679161 13.29727701 -2.75 18.5 C-2.77964844 19.32242188 -2.80929687 20.14484375 -2.83984375 20.9921875 C-2.90968437 22.99428533 -2.95720388 24.99714156 -3 27 C-3.33 27 -3.66 27 -4 27 C-4.02903577 23.89585298 -4.0468107 20.79174091 -4.0625 17.6875 C-4.07087891 16.80642578 -4.07925781 15.92535156 -4.08789062 15.01757812 C-4.09111328 14.17001953 -4.09433594 13.32246094 -4.09765625 12.44921875 C-4.10289307 11.66893311 -4.10812988 10.88864746 -4.11352539 10.0847168 C-4 8 -4 8 -3 5 C-4.98 5 -6.96 5 -9 5 C-6.06626269 3.04417512 -3.21783702 1.43775696 0 0 Z " fill="#A38967" transform="translate(395,219)"/>
<path d="M0 0 C2.76765757 0.83707126 5.32775632 1.87484476 8 3 C7.360625 3.12375 6.72125 3.2475 6.0625 3.375 C5.381875 3.58125 4.70125 3.7875 4 4 C3.67 4.66 3.34 5.32 3 6 C0.03 6 -2.94 6 -6 6 C-6 5.67 -6 5.34 -6 5 C-4.35 4.67 -2.7 4.34 -1 4 C-1 3.01 -1 2.02 -1 1 C-5.455 1.495 -5.455 1.495 -10 2 C-6.22486447 -0.51675702 -4.4906709 -0.36808778 0 0 Z " fill="#513922" transform="translate(138,352)"/>
<path d="M0 0 C8.54689408 -0.30403971 16.055903 -0.56114693 24 3 C24.33 3.66 24.66 4.32 25 5 C23.02 5.99 23.02 5.99 21 7 C20.67 6.01 20.34 5.02 20 4 C18.06381575 3.32843384 18.06381575 3.32843384 16 3 C15.34 2.67 14.68 2.34 14 2 C11.62876754 1.76970044 9.25258057 1.58880058 6.875 1.4375 C5.59367188 1.35371094 4.31234375 1.26992188 2.9921875 1.18359375 C1.51105469 1.09271484 1.51105469 1.09271484 0 1 C0 0.67 0 0.34 0 0 Z " fill="#B29670" transform="translate(137,328)"/>
<path d="M0 0 C0.33 0 0.66 0 1 0 C0.65265988 5.90478212 -0.65970358 8.08314713 -5 12 C-6.29519995 14.16620544 -6.29519995 14.16620544 -7 16 C-7.99 15.67 -8.98 15.34 -10 15 C-9.61328125 14.50371094 -9.2265625 14.00742187 -8.828125 13.49609375 C-5.49729049 9.15116853 -2.60742538 4.81370839 0 0 Z " fill="#E0D1C0" transform="translate(404,398)"/>
<path d="M0 0 C-3.72516561 3.72516561 -8.58612258 3.95145485 -13.640625 4.125 C-17.09603863 4.125 -20.54576606 4.08732614 -24 4 C-24 3.67 -24 3.34 -24 3 C-22.67935547 2.80083984 -22.67935547 2.80083984 -21.33203125 2.59765625 C-20.17058594 2.42105469 -19.00914062 2.24445313 -17.8125 2.0625 C-16.08966797 1.80146484 -16.08966797 1.80146484 -14.33203125 1.53515625 C-12.30812325 1.21009717 -10.28858267 0.85281021 -8.28125 0.4375 C-5.49161528 -0.09749844 -2.83319592 -0.06588828 0 0 Z " fill="#D5B994" transform="translate(154,398)"/>
<path d="M0 0 C2.29013653 3.4352048 2.17842973 4.985331 2 9 C0.68 9 -0.64 9 -2 9 C-2.66 7.02 -3.32 5.04 -4 3 C-2.68 2.01 -1.36 1.02 0 0 Z " fill="#3F2612" transform="translate(146,378)"/>
<path d="M0 0 C0.99 1.32 1.98 2.64 3 4 C2.34 4.66 1.68 5.32 1 6 C1 5.34 1 4.68 1 4 C-1.25929199 4.88289387 -1.25929199 4.88289387 -2.3125 7.5625 C-2.869375 8.366875 -3.42625 9.17125 -4 10 C-6.6875 10.3125 -6.6875 10.3125 -9 10 C-8.2575 9.278125 -7.515 8.55625 -6.75 7.8125 C-4.30709485 5.31407427 -2.1318953 2.76356798 0 0 Z " fill="#C9A581" transform="translate(337,201)"/>
<path d="M0 0 C3.47326585 1.15775528 3.91849562 2.13793148 6 5 C6.99 5.66 7.98 6.32 9 7 C8.34 7 7.68 7 7 7 C6.67 7.99 6.34 8.98 6 10 C3.69 7.69 1.38 5.38 -1 3 C-0.67 2.01 -0.34 1.02 0 0 Z " fill="#CDCDCD" transform="translate(433,89)"/>
<path d="M0 0 C0.99 0.33 1.98 0.66 3 1 C1.533292 4.86677565 -0.47201672 6.00985559 -4 8 C-4.33 8.66 -4.66 9.32 -5 10 C-5.66 10 -6.32 10 -7 10 C-5.6062718 5.56541027 -3.39417765 3.12621626 0 0 Z " fill="#C4A277" transform="translate(116,339)"/>
<path d="M0 0 C0.66 0 1.32 0 2 0 C2.86689178 2.57967797 3.71873789 5.16276127 4.5625 7.75 C4.80935547 8.47960937 5.05621094 9.20921875 5.31054688 9.9609375 C5.53935547 10.66992188 5.76816406 11.37890625 6.00390625 12.109375 C6.32597046 13.08342285 6.32597046 13.08342285 6.65454102 14.07714844 C7.06008636 16.33444538 6.69296911 17.83473482 6 20 C0.44419134 6.3667426 0.44419134 6.3667426 0 0 Z " fill="#AD8F6B" transform="translate(406,309)"/>
<path d="M0 0 C0.33 0.99 0.66 1.98 1 3 C-5.80074041 4.90420731 -11.91923749 6.40850553 -19 6 C-19 5.67 -19 5.34 -19 5 C-18.21496094 4.89042969 -17.42992187 4.78085938 -16.62109375 4.66796875 C-10.61800285 3.7619808 -5.43846574 2.71923287 0 0 Z " fill="#BB9C77" transform="translate(326,211)"/>
<path d="M0 0 C-0.33 0.99 -0.66 1.98 -1 3 C-1.66 3 -2.32 3 -3 3 C-3.33 3.99 -3.66 4.98 -4 6 C-6.97 6 -9.94 6 -13 6 C-10.65890118 4.43926745 -8.43666597 3.13626133 -5.9375 1.875 C-5.24527344 1.52179688 -4.55304688 1.16859375 -3.83984375 0.8046875 C-2 0 -2 0 0 0 Z " fill="#DFCEBB" transform="translate(167,392)"/>
<path d="M0 0 C-0.75 1.9375 -0.75 1.9375 -2 4 C-3.32303717 4.3721042 -4.65737935 4.70630173 -6 5 C-6.99 6.485 -6.99 6.485 -8 8 C-10.625 8.1875 -10.625 8.1875 -13 8 C-9.81692689 4.43495812 -5.03655764 0 0 0 Z " fill="#C8A47C" transform="translate(130,331)"/>
<path d="M0 0 C-2.80804268 2.96404505 -5.18315774 5.44499019 -9 7 C-9 6.34 -9 5.68 -9 5 C-9.66 4.67 -10.32 4.34 -11 4 C-7.20307814 1.17438373 -4.81430721 -0.56638908 0 0 Z " fill="#180E09" transform="translate(259,208)"/>
<path d="M0 0 C0.66 0 1.32 0 2 0 C2.6875 2.3125 2.6875 2.3125 3 5 C1.6875 6.8125 1.6875 6.8125 0 8 C-0.66 8 -1.32 8 -2 8 C-2.33 8.66 -2.66 9.32 -3 10 C-2.49287967 6.28111761 -1.88391785 3.26545761 0 0 Z " fill="#C9A77C" transform="translate(195,254)"/>
<path d="M0 0 C-10.37357631 4.40774487 -10.37357631 4.40774487 -16 5 C-15.67 4.34 -15.34 3.68 -15 3 C-14.01 3 -13.02 3 -12 3 C-12 2.34 -12 1.68 -12 1 C-10.37681021 0.63762737 -8.7513642 0.28534843 -7.125 -0.0625 C-6.22007812 -0.25972656 -5.31515625 -0.45695312 -4.3828125 -0.66015625 C-2 -1 -2 -1 0 0 Z " fill="#D2B188" transform="translate(261,487)"/>
<path d="M0 0 C0.66 0 1.32 0 2 0 C0.64763423 2.93879484 -0.89942659 5.29232911 -3 7.75 C-3.515625 8.36359375 -4.03125 8.9771875 -4.5625 9.609375 C-6 11 -6 11 -8 11 C-7.1875 9.0625 -7.1875 9.0625 -6 7 C-5.01 6.67 -4.02 6.34 -3 6 C-2.40929986 4.05396726 -2.40929986 4.05396726 -2 2 C-1.34 1.34 -0.68 0.68 0 0 Z " fill="#1F1108" transform="translate(169,320)"/>
<path d="M0 0 C0.33 0 0.66 0 1 0 C0.88628503 2.29225435 0.75869036 4.58382388 0.625 6.875 C0.52058594 8.78925781 0.52058594 8.78925781 0.4140625 10.7421875 C0 14 0 14 -2 16 C-3.70701221 10.10304872 -1.95193635 5.58011183 0 0 Z " fill="#DED4C4" transform="translate(412,376)"/>
<path d="M0 0 C0.33 0.66 0.66 1.32 1 2 C1.928125 1.79375 2.85625 1.5875 3.8125 1.375 C7 1 7 1 10 3 C9.34 4.32 8.68 5.64 8 7 C7.01 6.34 6.02 5.68 5 5 C5 4.34 5 3.68 5 3 C3.02 3 1.04 3 -1 3 C-0.67 2.01 -0.34 1.02 0 0 Z " fill="#2D1B0E" transform="translate(147,363)"/>
<path d="M0 0 C6.1691974 -0.17136659 6.1691974 -0.17136659 9 1 C10.11328125 3.046875 10.11328125 3.046875 11 5 C9.54119891 4.85892253 8.08296449 4.71197585 6.625 4.5625 C5.40683594 4.44068359 5.40683594 4.44068359 4.1640625 4.31640625 C2 4 2 4 0 3 C0 2.01 0 1.02 0 0 Z " fill="#3C2A1C" transform="translate(146,361)"/>
<path d="M0 0 C2.7972908 2.06756277 3.02692273 3.14440371 3.6875 6.6875 C3.790625 7.780625 3.89375 8.87375 4 10 C4.66 10 5.32 10 6 10 C6.33 11.65 6.66 13.3 7 15 C6.01 15.495 6.01 15.495 5 16 C0.59225513 5.62642369 0.59225513 5.62642369 0 0 Z " fill="#200F08" transform="translate(392,246)"/>
<path d="M0 0 C1.32 0 2.64 0 4 0 C5.2380014 3.57644848 4.74926071 6.33694766 4 10 C1.16625119 6.79663178 0.4794463 4.21912747 0 0 Z " fill="#D0CFCF" transform="translate(23,337)"/>
<path d="M0 0 C-0.7115625 0.5878125 -0.7115625 0.5878125 -1.4375 1.1875 C-3.35179633 3.40808374 -3.61266988 5.13375709 -4 8 C-8 3.25 -8 3.25 -8 1 C-2.25 -1.125 -2.25 -1.125 0 0 Z " fill="#C2A27C" transform="translate(179,273)"/>
<path d="M0 0 C2.31 0.66 4.62 1.32 7 2 C5.35 3.32 3.7 4.64 2 6 C0.68 5.34 -0.64 4.68 -2 4 C-1.34 2.68 -0.68 1.36 0 0 Z " fill="#565046" transform="translate(118,331)"/>
<path d="M0 0 C0.66 0.33 1.32 0.66 2 1 C1.21625 1.9075 0.4325 2.815 -0.375 3.75 C-2.30052496 6.05190236 -3.82205741 8.21577207 -5 11 C-5.66 11 -6.32 11 -7 11 C-6.68232368 5.59950264 -3.80003673 3.47662935 0 0 Z " fill="#3F3F3F" transform="translate(229,101)"/>
<path d="M0 0 C0.66 0.33 1.32 0.66 2 1 C2 1.99 2 2.98 2 4 C2.99 3.67 3.98 3.34 5 3 C5.66 4.32 6.32 5.64 7 7 C3.08788267 5.84414715 0.1254959 4.64465038 -3 2 C-2.01 1.34 -1.02 0.68 0 0 Z " fill="#CDCCCB" transform="translate(143,465)"/>
<path d="M0 0 C0.33 0 0.66 0 1 0 C1.625 3.375 1.625 3.375 2 7 C1.34 7.66 0.68 8.32 0 9 C-0.66 9 -1.32 9 -2 9 C-2.125 5.625 -2.125 5.625 -2 2 C-1.34 1.34 -0.68 0.68 0 0 Z " fill="#2C1C0F" transform="translate(144,372)"/>
<path d="M0 0 C0.66 0.33 1.32 0.66 2 1 C1.66226563 1.47050781 1.32453125 1.94101562 0.9765625 2.42578125 C0.30753906 3.35970703 0.30753906 3.35970703 -0.375 4.3125 C-0.81585938 4.92738281 -1.25671875 5.54226563 -1.7109375 6.17578125 C-2.83410907 7.7652392 -3.92041447 9.38062171 -5 11 C-5 9.02 -5 7.04 -5 5 C-4.34 5 -3.68 5 -3 5 C-2.87625 4.360625 -2.7525 3.72125 -2.625 3.0625 C-2.41875 2.381875 -2.2125 1.70125 -2 1 C-1.34 0.67 -0.68 0.34 0 0 Z " fill="#1B0D05" transform="translate(111,342)"/>
<path d="M0 0 C2.1875 -0.375 2.1875 -0.375 5 0 C6.99022836 1.83961648 8.38989899 3.79186148 10 6 C7.5625 5.625 7.5625 5.625 5 5 C4.67 4.34 4.34 3.68 4 3 C3.01 3 2.02 3 1 3 C0.67 2.01 0.34 1.02 0 0 Z " fill="#E0DEDF" transform="translate(430,80)"/>
<path d="M0 0 C0.79921875 0.01804688 1.5984375 0.03609375 2.421875 0.0546875 C3.02515625 0.07789062 3.6284375 0.10109375 4.25 0.125 C1.25 2.125 1.25 2.125 -1.75 3.125 C-2.08 3.785 -2.41 4.445 -2.75 5.125 C-3.41 4.795 -4.07 4.465 -4.75 4.125 C-4.42 3.465 -4.09 2.805 -3.75 2.125 C-5.4 2.125 -7.05 2.125 -8.75 2.125 C-5.68753253 0.34090198 -3.52920727 -0.10380021 0 0 Z " fill="#B5B4B3" transform="translate(218.75,1.875)"/>
<path d="M0 0 C0.66 0.33 1.32 0.66 2 1 C1.38125 1.0825 0.7625 1.165 0.125 1.25 C-2.18437567 1.81258459 -2.18437567 1.81258459 -3.25 4.0625 C-3.4975 4.701875 -3.745 5.34125 -4 6 C-6.31 6 -8.62 6 -11 6 C-8.66460191 4.44306794 -6.42031244 3.09799354 -3.9375 1.8125 C-2.89916016 1.26529297 -2.89916016 1.26529297 -1.83984375 0.70703125 C-1.23269531 0.47371094 -0.62554687 0.24039062 0 0 Z " fill="#DFCEBA" transform="translate(265,484)"/>
<path d="M0 0 C0.66 1.32 1.32 2.64 2 4 C-2.455 3.01 -2.455 3.01 -7 2 C-7 1.34 -7 0.68 -7 0 C-3.87438528 -1.04187157 -2.95319818 -1.23843794 0 0 Z " fill="#2F1F0D" transform="translate(151,359)"/>
<path d="M0 0 C0.95465783 2.16967689 1.14401212 3.56328793 0.3984375 5.82421875 C-0.35870385 7.5684743 -1.17609198 9.28627131 -2 11 C-2.66 10.01 -3.32 9.02 -4 8 C-1.72972973 1.72972973 -1.72972973 1.72972973 0 0 Z " fill="#190B04" transform="translate(175,307)"/>
<path d="M0 0 C2.99972349 3.78912441 5.47510809 7.88831832 8 12 C7.01 12 6.02 12 5 12 C2.875 9.0625 2.875 9.0625 1 6 C0.67 5.67 0.34 5.34 0 5 C-0.04063832 3.33382885 -0.042721 1.66611905 0 0 Z " fill="#C5A580" transform="translate(395,258)"/>
<path d="M0 0 C-1.49097658 3.7952131 -3.75700849 5.61042731 -7 8 C-7 5 -7 5 -4.625 2.3125 C-2 0 -2 0 0 0 Z " fill="#23120B" transform="translate(190,262)"/>
<path d="M0 0 C2.89932357 2.39509338 3.50168276 4.31245243 4 8 C3.01 7.34 2.02 6.68 1 6 C0.01 6 -0.98 6 -2 6 C-1.34 4.02 -0.68 2.04 0 0 Z " fill="#CDCDCD" transform="translate(483,160)"/>
<path d="M0 0 C1.36125 0.12375 1.36125 0.12375 2.75 0.25 C-0.45336822 3.08374881 -3.03087253 3.7705537 -7.25 4.25 C-4.83923194 1.28290085 -3.90322061 0.30024774 0 0 Z " fill="#1C110A" transform="translate(129.25,328.75)"/>
<path d="M0 0 C4.29 0.99 8.58 1.98 13 3 C13 3.33 13 3.66 13 4 C11.58376784 4.05447047 10.16691809 4.09300508 8.75 4.125 C7.96109375 4.14820313 7.1721875 4.17140625 6.359375 4.1953125 C3.79268059 3.9828378 2.2083933 3.28654105 0 2 C0 1.34 0 0.68 0 0 Z " fill="#C2A376" transform="translate(280,213)"/>
<path d="M0 0 C0.433125 0.9590625 0.433125 0.9590625 0.875 1.9375 C1.82823451 4.15206079 1.82823451 4.15206079 4 5 C2.35 5.33 0.7 5.66 -1 6 C-1.33 7.32 -1.66 8.64 -2 10 C-3 8 -3 8 -2.44140625 6.0546875 C-2.15136719 5.33539063 -1.86132812 4.61609375 -1.5625 3.875 C-1.27503906 3.15054688 -0.98757812 2.42609375 -0.69140625 1.6796875 C-0.46324219 1.12539062 -0.23507813 0.57109375 0 0 Z " fill="#BAB9B8" transform="translate(19,165)"/>
<path d="M0 0 C0 1.32 0 2.64 0 4 C-2.31 4 -4.62 4 -7 4 C-7 3.34 -7 2.68 -7 2 C-4.35261084 0.5393715 -3.10551666 0 0 0 Z " fill="#C8C7C6" transform="translate(161,18)"/>
<path d="M0 0 C-0.3125 1.875 -0.3125 1.875 -1 4 C-4 6 -4 6 -6.1875 5.625 C-6.785625 5.41875 -7.38375 5.2125 -8 5 C-2.25 0 -2.25 0 0 0 Z " fill="#E1D2C4" transform="translate(391,418)"/>
<path d="M0 0 C3.1875 2.3125 3.1875 2.3125 6 5 C6 5.66 6 6.32 6 7 C2.06326356 5.68775452 -0.22719294 4.08089673 -3 1 C-2.01 0.67 -1.02 0.34 0 0 Z " fill="#21140A" transform="translate(275,206)"/>
<path d="M0 0 C0.66 0.33 1.32 0.66 2 1 C-0.475 4.465 -0.475 4.465 -3 8 C-3.66 7.67 -4.32 7.34 -5 7 C-3.75023244 3.34683329 -3.32901247 2.21934164 0 0 Z " fill="#C7C6C7" transform="translate(173,37)"/>
<path d="M0 0 C2.64 0 5.28 0 8 0 C5.6870518 2.3129482 4.52095125 2.49580975 1.375 3.125 C0.55773437 3.29257812 -0.25953125 3.46015625 -1.1015625 3.6328125 C-2.04128906 3.81457031 -2.04128906 3.81457031 -3 4 C-2.34 3.67 -1.68 3.34 -1 3 C-0.67 2.01 -0.34 1.02 0 0 Z " fill="#DFDDDC" transform="translate(322,481)"/>
<path d="M0 0 C1.5 1 1.5 1 3 3 C3.27345479 5.71846235 3.13491285 8.25677199 3 11 C0.43383368 7.15075052 0.44902324 4.5650696 0 0 Z " fill="#D1B48C" transform="translate(177,405)"/>
<path d="M0 0 C1.41687119 4.25061356 0.19320039 6.71851625 -1 11 C-1.33 11 -1.66 11 -2 11 C-2.05399736 9.54207116 -2.09279177 8.08357288 -2.125 6.625 C-2.15980469 5.40683594 -2.15980469 5.40683594 -2.1953125 4.1640625 C-2 2 -2 2 0 0 Z " fill="#D2B284" transform="translate(412,373)"/>
<path d="M0 0 C0.99 0 1.98 0 3 0 C2 3 2 3 0 4.0625 C-0.66 4.371875 -1.32 4.68125 -2 5 C-2.33 5.66 -2.66 6.32 -3 7 C-3.99 6.67 -4.98 6.34 -6 6 C-5.34 6 -4.68 6 -4 6 C-3.71125 5.38125 -3.4225 4.7625 -3.125 4.125 C-2 2 -2 2 0 0 Z " fill="#D2AC81" transform="translate(166,327)"/>
<path d="M0 0 C0.33 0.66 0.66 1.32 1 2 C3.01669827 3.13350534 3.01669827 3.13350534 5 4 C4.01 5.485 4.01 5.485 3 7 C1.35 5.02 -0.3 3.04 -2 1 C-1.34 0.67 -0.68 0.34 0 0 Z " fill="#170F04" transform="translate(403,266)"/>
<path d="M0 0 C2.97 0.495 2.97 0.495 6 1 C3.4345406 3.5654594 1.52313332 3.54046087 -2 4 C-2 3.34 -2 2.68 -2 2 C-1.34 2 -0.68 2 0 2 C0 1.34 0 0.68 0 0 Z " fill="#24120B" transform="translate(388,219)"/>
<path d="M0 0 C-0.3125 1.9375 -0.3125 1.9375 -1 4 C-4.13349732 5.04449911 -4.98968256 4.93423645 -8 4 C-2.7826087 0 -2.7826087 0 0 0 Z " fill="#B5B5B5" transform="translate(153,21)"/>
<path d="M0 0 C2.67927341 4.01891012 2.15601248 6.24161923 2 11 C-0.19963566 8.80036434 -0.57049648 8.00652461 -1 5 C-0.5625 2.25 -0.5625 2.25 0 0 Z " fill="#E2D7CE" transform="translate(181,437)"/>
<path d="M0 0 C0 0.66 0 1.32 0 2 C-0.66 2 -1.32 2 -2 2 C-2 2.66 -2 3.32 -2 4 C-4.64 4 -7.28 4 -10 4 C-8.66666667 3.33333333 -7.33333333 2.66666667 -6 2 C-5.29875 1.62875 -4.5975 1.2575 -3.875 0.875 C-2 0 -2 0 0 0 Z " fill="#DED6C7" transform="translate(364,434)"/>
<path d="M0 0 C1 3 1 3 0.25 5.125 C-1 7 -1 7 -4 8 C-3.50168276 4.31245243 -2.89932357 2.39509338 0 0 Z " fill="#100905" transform="translate(183,264)"/>
<path d="M0 0 C0.763125 0.309375 1.52625 0.61875 2.3125 0.9375 C4.18789677 1.67893593 6.08684652 2.36228217 8 3 C7.67 3.99 7.34 4.98 7 6 C3.63279613 4.60667426 2.0140476 3.0210714 0 0 Z " fill="#160B05" transform="translate(343,209)"/>
<path d="M0 0 C1.9375 0.625 1.9375 0.625 4 2 C4.75 5.125 4.75 5.125 5 8 C2.5 5.6875 2.5 5.6875 0 3 C0 2.01 0 1.02 0 0 Z " fill="#CAA377" transform="translate(155,361)"/>
<path d="M0 0 C0.66 0.99 1.32 1.98 2 3 C1.34 3 0.68 3 0 3 C0 4.65 0 6.3 0 8 C-0.99 8 -1.98 8 -3 8 C-1.125 1.125 -1.125 1.125 0 0 Z " fill="#BBA077" transform="translate(108,349)"/>
</svg>
